<?xml version="1.0" encoding="UTF-8"?>
<svg xmlns="http://www.w3.org/2000/svg" style="stroke-dasharray:none; shape-rendering:auto; font-family:'Arial'; text-rendering:auto; fill-opacity:1; color-interpolation:auto; color-rendering:auto; font-size:12; fill:black; stroke:black; image-rendering:auto; stroke-miterlimit:10; stroke-linecap:square; stroke-linejoin:miter; font-style:normal; stroke-width:1; stroke-dashoffset:0; font-weight:normal; stroke-opacity:1;" contentScriptType="text/ecmascript" preserveAspectRatio="xMidYMid meet" zoomAndPan="magnify" version="1.0" contentStyleType="text/css" xml:xlink="http://www.w3.org/1999/xlink" width="916" height="517"><g sequence="1"><ellipse cx="127" cy="197" rx="17" ry="17" stroke-width="1" style="fill:url(#linearGradient66FF6696FF96B6FFB6_817323621);" stroke="336633" /></g><g sequence="2"><rect x="200" y="155" width="106" height="85" ry="5" rx="5" style="fill:url(#linearGradientF8FBFEEDF5FCDEEDFAD4E7F8E2E5E9_1047574019);" stroke="191970" /></g><g componentSequence="2"><text x="253" y="170" text-anchor="middle" style="font-weight:bold;font-size:10px;stroke:none; fill:#333399"><tspan dy="14" x="253">Aprovação</tspan><tspan dy="14" x="253">de Pedido</tspan></text></g><g sequence="6"><ellipse cx="797" cy="197" rx="17" ry="17" stroke-width="3" style="fill:url(#linearGradientFF6666FF9696FFB6B6_978269461);" stroke="993333" /></g><g sequence="13"><polygon points=" 460 169 490 139 520 169 490 199 460 169" style="fill:url(#linearGradientFAFBFCFFFFCC_2135800888);" stroke="000000" /></g><g componentSequence="13"><text x="490" y="209" text-anchor="middle" style="font-weight:bold;font-size:10px;stroke:none; fill:#333399"><tspan dy="14" x="490">Exclu</tspan><tspan dy="14" x="490">sivo</tspan></text></g><g sequence="23"><rect x="200" y="42" width="106" height="66" ry="5" rx="5" style="fill:url(#linearGradientF8FBFEEDF5FCDEEDFAD4E7F8E2E5E9_1963164098);" stroke="191970" /></g><g componentSequence="23"><text x="253" y="64" text-anchor="middle" style="font-weight:bold;font-size:10px;stroke:none; fill:#333399"><tspan dy="14" x="253">Ajustar</tspan></text></g><g sequence="26"><ellipse cx="797" cy="74" rx="17" ry="17" stroke-width="3" style="fill:url(#linearGradientFF6666FF9696FFB6B6_1316544975);" stroke="993333" /></g><g sequence="28"><rect x="610" y="165" width="106" height="66" ry="5" rx="5" style="fill:url(#linearGradientF8FBFEEDF5FCDEEDFAD4E7F8E2E5E9_232555144);" stroke="191970" /></g><g componentSequence="28"><text x="663" y="187" text-anchor="middle" style="font-weight:bold;font-size:10px;stroke:none; fill:#333399"><tspan dy="14" x="663">Aprovado</tspan></text></g><g sequence="31"><polygon points=" 460 430 490 400 520 430 490 460 460 430" style="fill:url(#linearGradientFAFBFCFFFFCC_526533495);" stroke="000000" /></g><g componentSequence="31"><text x="490" y="470" text-anchor="middle" style="font-weight:bold;font-size:10px;stroke:none; fill:#333399"><tspan dy="14" x="490">Exclu</tspan><tspan dy="14" x="490">sivo</tspan></text></g><g sequence="32"><rect x="437" y="290" width="105" height="85" ry="5" rx="5" style="fill:url(#linearGradientF8FBFEEDF5FCDEEDFAD4E7F8E2E5E9_1980157128);" stroke="191970" /></g><g componentSequence="32"><text x="489" y="305" text-anchor="middle" style="font-weight:bold;font-size:10px;stroke:none; fill:#333399"><tspan dy="14" x="489">Aprovação</tspan><tspan dy="14" x="489">Superior</tspan></text></g><g componentSequence="3"><text x="182" y="197" style="font-size:10px;font-weight:none;stroke:none; fill:#333399" text-anchor="left" /></g><g componentSequence="14"><text x="393" y="197" style="font-size:10px;font-weight:none;stroke:none; fill:#333399" text-anchor="left" /></g><g componentSequence="24"><text x="439" y="74" style="font-size:10px;font-weight:none;stroke:none; fill:#333399" text-anchor="left" /></g><g componentSequence="25"><text x="263" y="131" style="font-size:10px;font-weight:none;stroke:none; fill:#333399" text-anchor="left" /></g><g componentSequence="27"><text x="611" y="74" style="font-size:10px;font-weight:none;stroke:none; fill:#333399" text-anchor="left" /></g><g componentSequence="29"><text x="575" y="197" style="font-size:10px;font-weight:none;stroke:none; fill:#333399" text-anchor="left" /></g><g componentSequence="33"><text x="499" y="273" style="font-size:10px;font-weight:none;stroke:none; fill:#333399" text-anchor="left" /></g><g componentSequence="34"><text x="499" y="387" style="font-size:10px;font-weight:none;stroke:none; fill:#333399" text-anchor="left" /></g><g componentSequence="36"><text x="673" y="416" style="font-size:10px;font-weight:none;stroke:none; fill:#333399" text-anchor="left" /></g><g componentSequence="37"><text x="916" y="414" style="font-size:10px;font-weight:none;stroke:none; fill:#333399" text-anchor="left" /></g><g componentSequence="39"><text x="758" y="197" style="font-size:10px;font-weight:none;stroke:none; fill:#333399" text-anchor="left" /></g><g componentSequence="38"><text x="62" y="397" style="font-size:10px;font-weight:none;stroke:none; fill:#333399" text-anchor="left" /></g><path style="fill:none; stroke:#000000;stroke-width:1" d="M145.0 197.0 L199.0 197.0" /><polygon style="fill:#000000; stroke:#000000;" points=" 189 192 199 197 189 202 191 197" /><path style="fill:none; stroke:#000000;stroke-width:1" d="M306.0 197.0 L459.0 197.0" /><polygon style="fill:#000000; stroke:#000000;" points=" 449 192 459 197 449 202 451 197" /><path style="fill:none; stroke:#000000;stroke-width:1" d="M253.0 108.0 L253.0 154.0" /><polygon style="fill:#000000; stroke:#000000;" points=" 258 144 253 154 248 144 253 146" /><path style="fill:none; stroke:#000000;stroke-width:1" d="M489.0 138.0 L488.0 74.0 L306.0 74.0" /><polygon style="fill:#000000; stroke:#000000;" points=" 316 79 306 74 316 69 314 74" /><path style="fill:none; stroke:#000000;stroke-width:1" d="M489.0 138.0 L488.0 74.0 L779.0 74.0" /><polygon style="fill:#000000; stroke:#000000;" points=" 769 69 779 74 769 79 771 74" /><path style="fill:none; stroke:#000000;stroke-width:1" d="M520.0 197.0 L609.0 197.0" /><polygon style="fill:#000000; stroke:#000000;" points=" 599 192 609 197 599 202 601 197" /><path style="fill:none; stroke:#000000;stroke-width:1" d="M489.0 256.0 L489.0 289.0" /><polygon style="fill:#000000; stroke:#000000;" points=" 494 279 489 289 484 279 489 281" /><path style="fill:none; stroke:#000000;stroke-width:1" d="M459.0 458.0 L52.0 458.0 L52.0 75.0 L199.0 75.0" /><polygon style="fill:#000000; stroke:#000000;" points=" 189 70 199 75 189 80 191 75" /><path style="fill:none; stroke:#000000;stroke-width:1" d="M520.0 458.0 L906.0 458.0 L906.0 268.0 L906.0 74.0 L815.0 74.0" /><polygon style="fill:#000000; stroke:#000000;" points=" 825 79 815 74 825 69 823 74" /><path style="fill:none; stroke:#000000;stroke-width:1" d="M520.0 458.0 L663.0 458.0 L663.0 231.0" /><polygon style="fill:#000000; stroke:#000000;" points=" 658 241 663 231 668 241 663 239" /><path style="fill:none; stroke:#000000;stroke-width:1" d="M489.0 375.0 L489.0 399.0" /><polygon style="fill:#000000; stroke:#000000;" points=" 494 389 489 399 484 389 489 391" /><path style="fill:none; stroke:#000000;stroke-width:1" d="M716.0 197.0 L780.0 197.0" /><polygon style="fill:#000000; stroke:#000000;" points=" 770 192 780 197 770 202 772 197" /><defs><linearGradient xmlns:xlink="http://www.w3.org/1999/xlink" xlink:href="#linearGradient66FF6696FF96B6FFB6" id="linearGradient66FF6696FF96B6FFB6_817323621" x1="0" y1="180.0" x2="0" y2="215.0" gradientUnits="userSpaceOnUse" xlink:type="simple" xlink:actuate="onLoad" xlink:show="other" /><linearGradient id="linearGradient66FF6696FF96B6FFB6"><stop style="stop-color:#66FF66;stop-opacity:1;" offset="0.0" id="stop66FF66" /><stop style="stop-color:#96FF96;stop-opacity:1;" offset="0.5" id="stop96FF96" /><stop style="stop-color:#B6FFB6;stop-opacity:1;" offset="1.0" id="stopB6FFB6" /></linearGradient><linearGradient xmlns:xlink="http://www.w3.org/1999/xlink" xlink:href="#linearGradientF8FBFEEDF5FCDEEDFAD4E7F8E2E5E9" id="linearGradientF8FBFEEDF5FCDEEDFAD4E7F8E2E5E9_1047574019" x1="0" y1="155.0" x2="0" y2="261.0" gradientUnits="userSpaceOnUse" xlink:type="simple" xlink:actuate="onLoad" xlink:show="other" /><linearGradient id="linearGradientF8FBFEEDF5FCDEEDFAD4E7F8E2E5E9"><stop style="stop-color:#F8FBFE;stop-opacity:1;" offset="0.0" id="stopF8FBFE" /><stop style="stop-color:#EDF5FC;stop-opacity:1;" offset="0.25" id="stopEDF5FC" /><stop style="stop-color:#DEEDFA;stop-opacity:1;" offset="0.5" id="stopDEEDFA" /><stop style="stop-color:#D4E7F8;stop-opacity:1;" offset="0.75" id="stopD4E7F8" /><stop style="stop-color:#E2E5E9;stop-opacity:1;" offset="1.0" id="stopE2E5E9" /></linearGradient><linearGradient xmlns:xlink="http://www.w3.org/1999/xlink" xlink:href="#linearGradientFF6666FF9696FFB6B6" id="linearGradientFF6666FF9696FFB6B6_978269461" x1="0" y1="180.0" x2="0" y2="215.0" gradientUnits="userSpaceOnUse" xlink:type="simple" xlink:actuate="onLoad" xlink:show="other" /><linearGradient id="linearGradientFF6666FF9696FFB6B6"><stop style="stop-color:#FF6666;stop-opacity:1;" offset="0.0" id="stopFF6666" /><stop style="stop-color:#FF9696;stop-opacity:1;" offset="0.5" id="stopFF9696" /><stop style="stop-color:#FFB6B6;stop-opacity:1;" offset="1.0" id="stopFFB6B6" /></linearGradient><linearGradient xmlns:xlink="http://www.w3.org/1999/xlink" xlink:href="#linearGradientFAFBFCFFFFCC" id="linearGradientFAFBFCFFFFCC_2135800888" x1="0" y1="139.0" x2="0" y2="199.0" gradientUnits="userSpaceOnUse" xlink:type="simple" xlink:actuate="onLoad" xlink:show="other" /><linearGradient id="linearGradientFAFBFCFFFFCC"><stop style="stop-color:#FAFBFC;stop-opacity:1;" offset="0.0" id="stopFAFBFC" /><stop style="stop-color:#FFFFCC;stop-opacity:1;" offset="1.0" id="stopFFFFCC" /></linearGradient><linearGradient xmlns:xlink="http://www.w3.org/1999/xlink" xlink:href="#linearGradientF8FBFEEDF5FCDEEDFAD4E7F8E2E5E9" id="linearGradientF8FBFEEDF5FCDEEDFAD4E7F8E2E5E9_1963164098" x1="0" y1="42.0" x2="0" y2="148.0" gradientUnits="userSpaceOnUse" xlink:type="simple" xlink:actuate="onLoad" xlink:show="other" /><linearGradient xmlns:xlink="http://www.w3.org/1999/xlink" xlink:href="#linearGradientFF6666FF9696FFB6B6" id="linearGradientFF6666FF9696FFB6B6_1316544975" x1="0" y1="57.0" x2="0" y2="92.0" gradientUnits="userSpaceOnUse" xlink:type="simple" xlink:actuate="onLoad" xlink:show="other" /><linearGradient xmlns:xlink="http://www.w3.org/1999/xlink" xlink:href="#linearGradientF8FBFEEDF5FCDEEDFAD4E7F8E2E5E9" id="linearGradientF8FBFEEDF5FCDEEDFAD4E7F8E2E5E9_232555144" x1="0" y1="165.0" x2="0" y2="271.0" gradientUnits="userSpaceOnUse" xlink:type="simple" xlink:actuate="onLoad" xlink:show="other" /><linearGradient xmlns:xlink="http://www.w3.org/1999/xlink" xlink:href="#linearGradientFAFBFCFFFFCC" id="linearGradientFAFBFCFFFFCC_526533495" x1="0" y1="400.0" x2="0" y2="460.0" gradientUnits="userSpaceOnUse" xlink:type="simple" xlink:actuate="onLoad" xlink:show="other" /><linearGradient xmlns:xlink="http://www.w3.org/1999/xlink" xlink:href="#linearGradientF8FBFEEDF5FCDEEDFAD4E7F8E2E5E9" id="linearGradientF8FBFEEDF5FCDEEDFAD4E7F8E2E5E9_1980157128" x1="0" y1="290.0" x2="0" y2="395.0" gradientUnits="userSpaceOnUse" xlink:type="simple" xlink:actuate="onLoad" xlink:show="other" /></defs></svg>
